HIERARCHY
ROOT Hips
{
	OFFSET -3.958830 18.904000 13.208200
	CHANNELS 6 Xposition Yposition Zposition Zrotation Yrotation Xrotation 
	JOINT LHipJoint
	{
		OFFSET 0.000000 0.000000 0.000000
		CHANNELS 3 Zrotation Yrotation Xrotation
		JOINT LeftUpLeg
		{
			OFFSET 1.800000 -1.400000 0.085000
			CHANNELS 3 Zrotation Yrotation Xrotation
			JOINT LeftLeg
			{
				OFFSET 2.215000 -6.000000 0.000000
				CHANNELS 3 Zrotation Yrotation Xrotation
				JOINT LeftFoot
				{
					OFFSET 2.500000 -6.900000 0.000000
					CHANNELS 3 Zrotation Yrotation Xrotation
					JOINT LeftToeBase
					{
						OFFSET 0.200000 -0.500000 1.950000
						CHANNELS 3 Zrotation Yrotation Xrotation
						End Site
						{
							OFFSET 0.000000 0.000000 0.000000
						}
					}
				}
			}
		}
	}
	JOINT RHipJoint
	{
		OFFSET 0.000000 0.000000 0.000000
		CHANNELS 3 Zrotation Yrotation Xrotation
		JOINT RightUpLeg
		{
			OFFSET -1.800000 -1.400000 0.085000
			CHANNELS 3 Zrotation Yrotation Xrotation
			JOINT RightLeg
			{
				OFFSET -2.215000 -6.000000 0.000000
				CHANNELS 3 Zrotation Yrotation Xrotation
				JOINT RightFoot
				{
					OFFSET -2.500000 -6.900000 0.000000
					CHANNELS 3 Zrotation Yrotation Xrotation
					JOINT RightToeBase
					{
						OFFSET -0.200000 -0.500000 1.950000
						CHANNELS 3 Zrotation Yrotation Xrotation
						End Site
						{
							OFFSET 0.000000 0.000000 0.000000
						}
					}
				}
			}
		}
	}
	JOINT LowerBack
	{
		OFFSET 0.000000 0.000000 0.000000
		CHANNELS 3 Zrotation Yrotation Xrotation
		JOINT Spine
		{
			OFFSET -0.087000 1.940000 -0.288900
			CHANNELS 3 Zrotation Yrotation Xrotation
			JOINT Spine1
			{
				OFFSET 0.000000 1.950000 0.060000
				CHANNELS 3 Zrotation Yrotation Xrotation
				JOINT Neck
				{
					OFFSET 0.000000 0.000000 0.000000
					CHANNELS 3 Zrotation Yrotation Xrotation
					JOINT Neck1
					{
						OFFSET 0.000000 1.600000 0.340000
						CHANNELS 3 Zrotation Yrotation Xrotation
						JOINT Head
						{
							OFFSET 0.000000 1.667000 -0.240000
							CHANNELS 3 Zrotation Yrotation Xrotation
							End Site
							{
								OFFSET 0.000000 0.000000 0.000000
							}
						}
					}
				}
				JOINT LeftShoulder
				{
					OFFSET 0.000000 0.000000 0.000000
					CHANNELS 3 Zrotation Yrotation Xrotation
					JOINT LeftArm
					{
						OFFSET 2.700000 1.550000 -0.730000
						CHANNELS 3 Zrotation Yrotation Xrotation
						JOINT LeftForeArm
						{
							OFFSET 5.450000 0.000000 0.000000
							CHANNELS 3 Zrotation Yrotation Xrotation
							JOINT LeftHand
							{
								OFFSET 3.450000 0.000000 0.000000
								CHANNELS 3 Zrotation Yrotation Xrotation
								JOINT LeftHandIndex1
								{
									OFFSET 0.750000 0.000000 0.000000
									CHANNELS 3 Zrotation Yrotation Xrotation
									End Site
									{
										OFFSET 0.000000 0.000000 0.000000
									}
								}
							}
						}
					}
				}
				JOINT RightShoulder
				{
					OFFSET 0.000000 0.000000 0.000000
					CHANNELS 3 Zrotation Yrotation Xrotation
					JOINT RightArm
					{
						OFFSET -2.700000 1.550000 -0.730000
						CHANNELS 3 Zrotation Yrotation Xrotation
						JOINT RightForeArm
						{
							OFFSET -5.450000 0.000000 0.000000
							CHANNELS 3 Zrotation Yrotation Xrotation
							JOINT RightHand
							{
								OFFSET -3.450000 0.000000 0.000000
								CHANNELS 3 Zrotation Yrotation Xrotation
								JOINT RightHandIndex1
								{
									OFFSET -0.750000 0.000000 0.000000
									CHANNELS 3 Zrotation Yrotation Xrotation
									End Site
									{
										OFFSET 0.000000 0.000000 0.000000
									}
								}
							}
						}
					}
				}
			}
		}
	}
}
MOTION
Frames: 12
Frame Time: 0.016667
1.195540 12.588030 -1.471710 -58.323897 -51.369183 39.260277 -16.439363 6.873863 4.953995 -33.006997 -37.523523 -92.122313 66.464427 -6.762539 37.821031 1.456859 12.241146 0.502576 0.208890 -0.045350 0.351290 18.590762 -2.291103 8.946037 -55.854293 7.790981 -17.709531 121.961036 25.579909 -11.533567 -0.566469 -2.853019 3.431627 -0.042620 0.409960 0.096840 -2.960804 -2.899770 -12.152554 -12.558497 16.854742 44.526934 -12.179068 12.232836 13.177424 8.435449 1.357568 -16.847138 2.869022 5.182175 50.394177 2.382010 5.053460 -2.639480 -13.994538 -31.954506 14.652973 -21.240109 -3.495269 -1.470839 16.393311 -1.974397 -1.062938 -4.057093 2.771520 0.422760 0.173680 -0.097170 0.013070 -2.871746 43.552539 -1.710588 1.617397 33.059106 -16.604182 -47.299484 47.920462 -22.881701 2.557325 -1.196364 -0.249350 0.358190 0.103150 -0.136080 
1.188570 12.523100 -1.426850 -58.949087 -53.510567 38.230764 -16.368520 7.017128 5.009621 -31.424948 -37.682239 -93.117917 69.134807 -7.346255 37.626817 1.430265 12.599785 0.340329 0.223140 -0.054840 0.360710 18.626005 -2.690345 8.627179 -58.746444 8.274408 -17.365158 123.826364 20.691046 -9.422477 -0.684642 -3.268113 3.210743 -0.012930 0.359930 0.129930 -3.056047 -2.626379 -12.021775 -11.701969 16.011802 45.343617 -13.133672 12.050727 13.685272 8.448885 1.779489 -16.807751 3.452766 4.264719 50.554529 2.474200 4.126060 -5.085960 -14.119018 -31.002991 13.981562 -21.465117 -3.693031 -0.788655 13.656633 -1.379750 -0.989616 -4.041783 2.725342 0.509270 0.135350 -0.065860 -0.028990 -3.002878 41.778972 -0.328137 3.544360 33.013822 -17.206293 -50.845832 47.813225 -25.175626 2.461767 -1.162353 -0.273240 0.337880 0.149050 -0.178120 
1.121650 12.475240 -1.315800 -62.132666 -59.305853 35.978711 -16.208438 7.824920 4.860014 -29.661996 -36.007686 -94.457317 80.388101 -7.362787 34.090609 1.697671 13.383987 0.126498 0.159530 -0.139710 0.261190 18.626477 -3.719293 7.824101 -62.921805 10.369339 -17.081429 131.284953 4.718020 -3.057073 -1.045998 -4.896367 2.672769 -0.062970 0.385000 0.167920 -3.031141 -2.528233 -11.592479 -12.916066 17.473718 46.493219 -12.778337 12.478156 13.542782 7.297406 2.034437 -18.375223 3.377163 5.228819 53.302932 5.523450 4.065670 -2.343830 -17.314078 -31.593109 14.055722 -21.310977 -0.788085 -0.325457 9.096257 0.996536 -0.769206 -4.068831 2.662792 0.547060 0.151990 -0.085430 -0.055240 2.300365 42.370160 2.396689 4.314071 31.152868 -18.082420 -50.524689 50.007068 -25.157822 2.298885 -1.084244 -0.277960 0.273480 0.219300 -0.178100 
1.041890 12.434060 -1.164970 -74.646138 -63.288495 40.355654 -15.979410 8.233485 5.257126 -19.430345 -29.950001 -97.902062 91.445437 -12.906643 36.678280 2.211444 14.686892 -0.125125 0.411180 0.169040 0.466130 18.637522 -5.081886 6.499800 -63.165023 14.883275 -21.474550 131.207668 -22.948915 5.832825 -2.110384 -8.437196 1.568479 0.078020 0.217440 0.128320 -3.254579 -1.860578 -11.264541 -8.530877 14.350550 50.200995 -15.579103 13.750306 16.218117 8.228532 0.552870 -19.903183 -0.795226 6.284831 55.676608 4.476350 3.812610 -7.360970 -18.994909 -31.474684 13.231024 -21.967349 -0.526920 0.418318 4.989893 5.585521 -0.731255 -3.916898 2.528130 0.604130 0.002540 0.086150 0.033720 1.806607 43.361344 4.492925 5.629439 29.793431 -22.076017 -57.793924 46.564848 -29.015782 2.872017 -1.458927 -0.195890 0.338620 0.027020 -0.170580 
1.013570 12.439190 -1.004190 -77.790267 -67.088581 38.737073 -16.281508 8.455510 6.244101 -9.160350 -25.330346 -97.522393 96.648468 -20.227441 45.156148 2.698917 16.226329 -0.428486 0.677670 0.468310 0.758100 18.212467 -6.388628 4.693554 -64.075066 16.845452 -24.125768 117.241970 -49.679521 20.613959 -2.625948 -10.122401 1.039593 0.227770 0.022320 0.093230 -3.174908 -2.310733 -10.844899 -10.454806 13.456366 51.196929 -14.677002 13.737958 20.996066 8.982839 1.057524 -22.251549 -1.543790 5.646878 59.661974 1.665730 3.284250 -13.060290 -18.278126 -32.871922 12.476335 -24.412943 -1.626454 0.604046 2.810003 9.173384 -0.836812 -3.797005 2.343245 0.701940 -0.145080 0.289280 0.094600 -0.721111 44.302070 8.012603 7.491161 26.704186 -27.566268 -56.867165 42.882736 -28.093904 3.200531 -1.891865 -0.139060 0.427860 -0.175130 -0.201370 
0.995660 12.392090 -0.856710 -84.157011 -70.809754 41.903877 -16.526671 7.388597 7.131719 7.197014 -17.036731 -96.280860 96.485737 -29.547832 60.890309 3.388297 17.748528 -0.724883 0.939340 0.799490 0.931360 18.129429 -5.957375 4.615235 -66.582974 15.929460 -30.493400 99.632083 -58.163051 35.037564 -2.784917 -10.448905 0.885050 0.325600 -0.260760 0.131870 -3.266154 -2.290597 -11.328038 -11.322718 13.232171 53.768954 -13.712921 14.064237 20.883627 8.439862 2.480992 -23.029506 0.654865 3.235215 62.230320 1.611400 2.515260 -16.935200 -20.677589 -32.825315 11.759688 -24.190652 -2.043443 0.423843 2.862134 9.559323 -0.670196 -3.575642 2.509482 0.721830 -0.310770 0.490690 0.142100 2.538729 43.091349 9.728317 12.131417 24.278880 -26.988950 -52.577983 42.410807 -25.578578 2.765110 -1.905579 0.065370 0.262210 -0.389360 -0.183760 
1.007400 12.344750 -0.769570 -83.532064 -71.618229 40.860364 -16.913997 6.117581 7.995764 25.736960 -10.797979 -90.959578 78.284448 -34.940244 89.598331 4.271208 21.153396 -1.388481 1.086470 0.962800 1.075720 17.983492 -4.841298 5.031764 -66.967859 12.435734 -35.987898 76.119167 -61.349424 52.933815 -3.156219 -11.824540 0.457938 0.350110 -0.451420 0.181200 -3.243323 -2.748702 -12.007301 -12.928007 11.778780 56.298204 -10.046461 12.424670 18.750496 6.767315 3.182829 -21.454176 2.563833 0.965432 64.046653 2.761010 1.961540 -22.558680 -21.420287 -32.384117 11.888215 -26.288575 -2.604424 0.367886 2.950099 9.180735 -0.571872 -3.408846 2.657378 0.798320 -0.449540 0.649710 0.111520 6.981400 40.909012 9.493353 18.649709 21.122557 -25.696093 -41.861506 46.869032 -21.211938 2.032954 -1.508654 0.192780 0.177000 -0.470350 -0.196080 
1.068280 12.346240 -0.705060 -81.863702 -74.066000 39.489255 -17.151331 6.039350 7.895276 35.483993 -8.142011 -82.196755 60.322002 -29.484385 112.373047 4.448716 22.173317 -1.659585 1.262410 1.206330 1.173850 17.855199 -4.056625 5.474798 -65.832490 9.270595 -41.061560 49.187075 -56.995713 72.056890 -3.749965 -14.522854 -0.236386 0.448070 -0.609280 0.174290 -2.985372 -3.613984 -12.261784 -16.588735 12.872467 56.345531 -4.844767 11.684890 20.068866 4.605091 3.053787 -22.484681 1.962473 0.446867 68.683106 6.334520 1.903180 -27.673150 -21.023550 -33.815688 11.824178 -28.590519 -3.292522 -0.448628 9.483056 6.691179 -0.106271 -3.249378 2.827481 0.898710 -0.588290 0.805660 0.124760 11.408219 41.447483 11.196366 21.967580 17.241801 -24.370946 -40.238359 33.780600 -16.365027 2.321740 -1.732484 0.276780 0.165970 -0.559160 -0.198270 
1.064560 12.327780 -0.563700 -83.163989 -75.024541 38.756300 -17.199575 6.757352 7.583152 40.127115 -9.380170 -74.155085 51.433539 -22.085043 122.147303 3.894702 20.252118 -1.394746 1.257070 1.142420 1.298010 17.739543 -4.419707 5.193505 -59.990757 6.064053 -43.519591 26.234617 -45.521325 84.233365 -3.830676 -15.854611 -0.619043 0.413700 -0.701410 0.157980 -2.822919 -4.211778 -12.018323 -16.383582 12.541540 59.575077 -1.948429 10.582649 18.996321 3.762172 4.797247 -24.029067 5.580984 -2.761966 73.546876 3.852770 2.358880 -29.255330 -23.581177 -36.115977 12.177744 -26.659790 -3.149752 -0.828361 10.996040 6.575356 -0.180488 -3.252076 2.699005 1.014000 -0.635640 0.864360 0.056690 15.837764 41.333178 12.119650 28.069496 11.352494 -22.077832 -36.717415 26.031392 -12.141615 2.380693 -1.707274 0.230480 0.183730 -0.556160 -0.297110 
1.090720 12.285020 -0.424740 -97.409326 -76.983315 50.501481 -16.871439 7.314954 7.311216 43.649850 -8.579960 -65.241668 43.829793 -10.087712 130.213618 3.212175 17.313740 -0.863094 1.219800 1.103420 1.256160 17.915295 -5.560038 4.655270 -50.211380 4.588053 -49.517131 8.714063 -29.462398 87.544856 -3.274295 -14.531227 -0.427689 0.369830 -0.724550 0.179260 -3.060454 -3.656980 -11.613028 -12.277786 10.977769 63.965922 -3.450606 11.734585 16.639959 3.193934 6.165764 -25.001911 7.205158 -5.581409 75.343863 5.195560 0.834670 -28.983950 -26.081995 -37.758171 11.490973 -20.483376 -6.730329 -0.641549 10.890156 7.649689 -0.366940 -3.381360 2.620712 1.020750 -0.646780 0.868320 0.031450 19.594914 40.982483 12.520530 35.373741 4.458628 -20.636008 -35.326994 21.163143 -9.607911 2.442672 -1.733442 0.255030 0.123760 -0.531280 -0.295510 
1.107420 12.129640 -0.242580 -122.606284 -77.055551 76.438023 -16.410538 6.807158 7.733115 52.273630 -7.528639 -57.954903 38.010886 8.263936 143.538766 2.886822 15.101470 -0.246050 1.222760 1.126400 1.229280 18.387084 -5.975251 4.426371 -38.387188 2.086646 -58.466106 -1.323443 -15.961885 75.914277 -2.369937 -11.490943 0.300335 0.380910 -0.636530 0.181750 -3.043087 -3.059123 -11.607646 -8.641476 6.343071 63.115449 -5.624531 10.239323 15.827949 2.919636 5.770212 -21.764113 5.853823 -4.782941 72.447371 3.833320 0.990790 -26.421400 -26.996867 -35.487843 10.071400 -16.783923 -10.036515 -1.529069 13.903942 6.710874 -0.564321 -3.465515 2.707716 0.898430 -0.570920 0.812950 0.108190 20.566448 37.413693 11.829843 39.990762 3.388775 -15.208495 -27.966687 16.515688 -6.014225 2.402451 -1.638200 0.271810 0.138450 -0.579090 -0.236260 
1.095940 12.005290 -0.060420 -142.117959 -75.939263 95.057284 -16.044617 6.522066 8.307677 57.780395 -8.423078 -47.680081 32.774718 32.707897 152.776912 3.571609 16.473776 -0.422062 1.204200 1.128300 1.182170 18.780730 -6.319065 4.068553 -26.268666 2.464510 -62.465563 -10.645264 -6.287995 60.613098 -1.644669 -8.395303 1.177944 0.316870 -0.659010 0.224110 -2.929052 -2.633848 -11.578160 -6.215520 3.137140 66.370054 -6.665291 8.539073 12.144562 2.523277 5.430009 -19.945700 4.416336 -4.384995 69.940182 3.076870 1.059830 -24.463060 -28.282680 -34.323477 8.914096 -14.186688 -10.763000 -5.012430 19.553073 -1.943713 -1.919149 -3.304137 3.036136 0.784830 -0.553830 0.798700 0.131930 22.723371 35.006415 12.109644 42.077339 0.578142 -10.071443 -19.575558 10.169616 -2.311317 2.548925 -1.577269 0.374760 -0.002240 -0.624980 -0.178000 
